<svg width="1278" height="1167" viewBox="0 0 1278 1167" fill="none" xmlns="http://www.w3.org/2000/svg">
<path d="M441.861 1164.88L123.58 942.79L2 583.439L123.58 224.087L441.861 2H835.288L1153.57 224.087L1275.15 583.439L1153.57 942.79L835.288 1164.88H441.861Z" stroke="white" stroke-width="4" stroke-miterlimit="10" stroke-linecap="round" stroke-linejoin="round"/>
<path d="M481.593 1047.44L227.596 870.21L130.573 583.439L227.596 296.669L481.593 119.437H795.556L1049.55 296.669L1146.58 583.439L1049.55 870.21L795.556 1047.44H481.593Z" stroke="white" stroke-width="4" stroke-miterlimit="10" stroke-linecap="round" stroke-linejoin="round"/>
<path d="M521.325 930.005L331.614 797.629L259.147 583.439L331.614 369.25L521.325 236.875H755.824L945.535 369.25L1018 583.439L945.535 797.629L755.824 930.005H521.325Z" stroke="white" stroke-width="4" stroke-miterlimit="10" stroke-linecap="round" stroke-linejoin="round"/>
<path d="M561.057 812.566L435.632 725.047L387.72 583.439L435.632 441.832L561.057 354.312H716.092L841.518 441.832L889.429 583.439L841.518 725.047L716.092 812.566H561.057Z" stroke="white" stroke-width="4" stroke-miterlimit="10" stroke-linecap="round" stroke-linejoin="round"/>
<path d="M676.362 471.749H600.787L539.647 514.411L516.294 583.439L539.647 652.468L600.787 695.129H676.362L737.501 652.468L760.855 583.439L737.501 514.411L676.362 471.749Z" stroke="white" stroke-width="4" stroke-miterlimit="10" stroke-linecap="round" stroke-linejoin="round"/>
<path d="M123.58 942.79L1153.57 224.087" stroke="white" stroke-width="4" stroke-miterlimit="10" stroke-linecap="round" stroke-linejoin="round"/>
<path d="M441.861 2L835.288 1164.88" stroke="white" stroke-width="4" stroke-miterlimit="10" stroke-linecap="round" stroke-linejoin="round"/>
<path d="M835.288 2L441.861 1164.88" stroke="white" stroke-width="4" stroke-miterlimit="10" stroke-linecap="round" stroke-linejoin="round"/>
<path d="M2 583.439H1275.15" stroke="white" stroke-width="4" stroke-miterlimit="10" stroke-linecap="round" stroke-linejoin="round"/>
<path d="M123.58 224.087L1153.57 942.79" stroke="white" stroke-width="4" stroke-miterlimit="10" stroke-linecap="round" stroke-linejoin="round"/>
</svg>
